<?xml version="1.0" ?><svg style="enable-background:new 0 0 24 24;" version="1.1" viewBox="0 0 24 24" xml:space="preserve" xmlns="http://www.w3.org/2000/svg" xmlns:xlink="http://www.w3.org/1999/xlink"><style type="text/css">
	.st0{opacity:0.2;fill:none;stroke:#000000;stroke-width:5.000000e-02;stroke-miterlimit:10;}
</style><g id="grid_system"/><g id="_icons"><g><circle cx="12" cy="4" r="1"/><ellipse cx="16" cy="5.1" rx="1" ry="1" transform="matrix(0.5 -0.866 0.866 0.5 3.6077 16.3923)"/><ellipse cx="18.9" cy="8" rx="1" ry="1" transform="matrix(0.866 -0.5 0.5 0.866 -1.4641 10.5359)"/><circle cx="20" cy="12" r="1"/><ellipse cx="18.9" cy="16" rx="1" ry="1" transform="matrix(0.5 -0.866 0.866 0.5 -4.3923 24.3923)"/><ellipse cx="16" cy="18.9" rx="1" ry="1" transform="matrix(0.866 -0.5 0.5 0.866 -7.3205 10.5359)"/><circle cx="12" cy="20" r="1"/><ellipse cx="8" cy="18.9" rx="1" ry="1" transform="matrix(0.5 -0.866 0.866 0.5 -12.3923 16.3923)"/><ellipse cx="5.1" cy="16" rx="1" ry="1" transform="matrix(0.866 -0.5 0.5 0.866 -7.3205 4.6795)"/><circle cx="4" cy="12" r="1"/><ellipse cx="5.1" cy="8" rx="1" ry="1" transform="matrix(0.5 -0.866 0.866 0.5 -4.3923 8.3923)"/></g></g></svg>